<svg version="1.2" xmlns="http://www.w3.org/2000/svg" viewBox="0 0 512 512" width="512" height="512">
	<title>BSRE1 logo</title>
	<style>
		.s0 { fill: #6272a4 } 
	</style>
	<path id="bsre1." class="s0" aria-label="bsre1."  d="m70.5 324q-13 0-22-8.5-2.6 8.5-11.9 8.5-5.5 0-9.3-3.3-3.7-3.4-3.7-8.5v-113.4q0-4.9 3.5-8.2 3.7-3.7 9.5-3.7 5.5 0 9 3.7 3.5 3.3 3.5 8.5v39.9q9.8-9.4 22.3-9.4 19.1 0 30.4 12.8 11.5 12.5 11.5 34.1 0 21.6-11.5 34.7-11.6 12.8-31.3 12.8zm-2-24.6q8.9 0 14.2-6.4 5.5-6.7 5.5-16.5 0-10.1-5.5-16.2-5.3-6-14.2-6-8.7 0-14.2 6-5.2 6.1-5.2 16.2 0 9.8 5.2 16.5 5.5 6.4 14.2 6.4zm90.8 24.6q-19.7 0-32.4-8.5-2.6-1.8-3.8-4.3-1.1-2.7-1.1-5.1 0-5.2 3.1-9.5 3.5-4.3 8.4-4.3 2.4 0 4.7 1.3 5.2 2.4 11.8 4.2 6.7 1.6 12.2 1.6 10.7 0 10.7-5.2 0-3.1-2.6-5.2-2.6-2.4-12.2-3.4-3.7-0.3-9.8-1.2-5.8-0.9-11.6-3.3-5.8-2.8-9.8-8-3.8-5.1-3.8-14 0-13.7 9.9-21.6 9.8-7.9 26.3-7.9 9.6 0 18 2.1 8.6 2.1 13 6.4 4 4 4 9.1 0 4.6-3.1 8.3-3.2 3.6-8.2 3.6-2.6 0-4.9-1.2-3.4-2.4-9-3.6-5.2-1.3-10.7-1.3-11 0-11 4.9 0 2.1 2.1 4 2.3 1.5 10.1 2.7 4.9 0.6 11.3 1.8 6.4 1 12.1 3.7 6.1 2.4 10.2 8.2 4 5.8 4 15.9 0 13.7-10.4 21.9-10.4 7.9-27.5 7.9zm65.4-0.9q-5.5 0-9.3-3.3-3.8-3.4-3.8-8.6v-68.2q0-4.9 3.5-8.3 3.8-3.6 9.6-3.6 5.2 0 8.4 3.3 3.4 3.1 4 7.7 3.2-5.2 8.7-8.9 5.5-3.6 11.6-3.6 3.7 0 7.2 0.9 4.1 1.2 6.7 4.9 2.6 3.3 2.6 7.9 0 6.4-4.1 10.6-3.7 4-8.9 2.8-3.8-0.9-7.6-0.9-6.6 0-11 4.9-4.3 4.8-5.2 19.8v30.4q0 5.2-3.7 8.9-3.5 3.3-8.7 3.3zm98.6 0.9q-19.7 0-33.3-12.1-13.3-12.5-13.3-34.2 0-22.5 13-35.3 13.4-12.8 33.3-12.8 14.2 0 23.5 5.4 9.3 5.5 13.9 14.1 4.6 8.5 4.6 18 0 15.8-13.3 15.8h-48.1q-2.3 0-2.3 3 0 7.1 7.3 11.3 7.5 4 16.8 4 5.7 0 11.5-1.5 5.8-1.9 10.2-5.2 2.9-2.2 6.1-2.2 4.3 0 7.2 3.4 3.2 3.4 3.2 7.9 0 5.5-5.5 10.4-5.2 4.6-15.4 7.3-9.8 2.7-19.4 2.7zm-19.4-58.8h34.5q0.6 0 1.4-0.3 1.2-0.3 1.2-2.1 0-4.6-5.5-8.2-5.2-4-13.6-4-9 0-14.8 4.3-5.5 3.9-5.5 8.2 0 2.1 2.3 2.1zm112.9 58.8q-5.2 0-9.3-3.9-3.8-4-3.8-9.2v-80.7q0-4.3-3.4-2.2l-5.2 3.1q-1.2 0.6-2.4 0.9-1.1 0-2.3 0-5.5 0-9-3.7-3.4-3.9-3.4-9.7 0-7.9 8.1-11.6l22.3-9.4q3.7-1.6 6.6-1.6 6.7 0 10.8 4.3 4.3 4.3 4.3 11.3l-0.3 100q0 5.4-3.8 9.1-3.4 3.3-9.2 3.3zm56.8-0.4q-7 0-11.9-4.6-4.6-4.5-4.6-10.9 0-6.7 4.6-11.6 4.9-4.9 11.9-4.9 6.3 0 10.7 4.9 4.6 4.9 4.6 11.6 0 6.4-4.6 10.9-4.4 4.6-10.7 4.6z"/>
</svg>